# 3ds Max Wavefront OBJ Exporter v0.97b - (c)2007 guruware
# File Created: 11.01.2017 13:07:51

#
# object Box001
#

v  -2.3388 0.0000 1.5000
v  1.3007 0.0000 1.5000
v  1.3007 0.0000 0.7500
v  -2.3388 0.0000 0.7500
v  1.5161 0.0000 1.5000
v  1.5161 0.0000 0.7500
v  1.8353 0.0000 1.5000
v  1.8353 0.0000 0.7500
v  2.7425 0.0000 1.5000
v  2.7425 0.0000 0.7500
v  3.0000 0.0000 1.5000
v  3.0000 0.0000 0.7500
v  1.3007 0.0000 -0.0000
v  -2.3388 0.0000 -0.0000
v  1.5161 0.0000 -0.0000
v  1.8353 0.0000 -0.0000
v  2.7425 0.0000 -0.0000
v  3.0000 0.0000 -0.0000
v  1.3007 0.0000 -0.7500
v  -2.3388 0.0000 -0.7500
v  1.5161 0.0000 -0.7500
v  1.8353 0.0000 -0.7500
v  2.7425 0.0000 -0.7500
v  3.0000 0.0000 -0.7500
v  1.3007 0.0000 -1.5000
v  -2.3388 0.0000 -1.5000
v  1.3007 2.0000 -0.7500
v  1.5161 2.0000 -0.7500
v  1.5161 2.0000 -1.5000
v  1.3007 2.0000 -1.5000
v  1.8353 0.0000 -1.5000
v  1.5161 0.0000 -1.5000
v  2.7425 0.0000 -1.5000
v  3.0000 0.0000 -1.5000
v  -2.3388 1.6725 1.5000
v  1.3007 1.6725 1.5000
v  1.5161 1.6725 1.5000
v  1.8353 1.6725 1.5000
v  1.8353 1.6725 0.7500
v  2.7425 1.6725 0.7500
v  2.7425 1.6725 1.5000
v  3.0000 1.6725 1.5000
v  -2.3388 2.0000 1.5000
v  1.3007 2.0000 1.5000
v  1.5161 2.0000 1.5000
v  1.8353 2.0000 1.5000
v  2.7425 2.0000 1.5000
v  3.0000 2.0000 1.5000
v  3.0000 1.6725 0.7500
v  3.0000 1.6725 -0.0000
v  3.0000 1.6725 -0.7500
v  3.0000 1.6725 -1.5000
v  3.0000 2.0000 0.7500
v  3.0000 2.0000 -0.0000
v  3.0000 2.0000 -0.7500
v  3.0000 2.0000 -1.5000
v  2.7425 1.6725 -1.5000
v  2.7425 0.0000 -2.0000
v  2.7425 1.6725 -2.0000
v  1.8353 1.6725 -2.0000
v  1.8353 0.0000 -2.0000
v  1.8353 1.6725 -1.5000
v  1.5161 1.6725 -1.5000
v  1.3007 1.6725 -1.5000
v  -2.3388 1.6725 -1.5000
v  2.7425 2.0000 -1.5000
v  1.8353 2.0000 -1.5000
v  -2.3388 2.0000 -1.5000
v  -2.3388 1.6725 -0.7500
v  -2.3388 1.6725 -0.0000
v  -2.3388 1.6725 0.7500
v  -2.3388 2.0000 -0.7500
v  -2.3388 2.0000 -0.0000
v  -2.3388 2.0000 0.7500
# 74 vertices

vn 0.0000 1.0000 -0.0000
vn 0.0000 0.0000 -1.0000
vn -1.0000 -0.0000 -0.0000
vn -1.0000 0.0000 -0.0000
vn 0.0000 0.0000 1.0000
vn 1.0000 0.0000 -0.0000
vn 0.0000 -1.0000 -0.0000
# 7 vertex normals

vt 1.0000 0.0000 0.0000
vt 0.8000 0.0000 0.0000
vt 0.8000 0.2500 0.0000
vt 1.0000 0.2500 0.0000
vt 0.6000 0.0000 0.0000
vt 0.6000 0.2500 0.0000
vt 0.4000 0.0000 0.0000
vt 0.4000 0.2500 0.0000
vt 0.2000 0.0000 0.0000
vt 0.2000 0.2500 0.0000
vt 0.0000 0.0000 0.0000
vt 0.0000 0.2500 0.0000
vt 0.8000 0.5000 0.0000
vt 1.0000 0.5000 0.0000
vt 0.6000 0.5000 0.0000
vt 0.4000 0.5000 0.0000
vt 0.2000 0.5000 0.0000
vt 0.0000 0.5000 0.0000
vt 0.8000 0.7500 0.0000
vt 1.0000 0.7500 0.0000
vt 0.6000 0.7500 0.0000
vt 0.4000 0.7500 0.0000
vt 0.2000 0.7500 0.0000
vt 0.0000 0.7500 0.0000
vt 0.8000 1.0000 0.0000
vt 1.0000 1.0000 0.0000
vt 0.6000 1.0000 0.0000
vt 0.4000 1.0000 0.0000
vt 0.2000 1.0000 0.0000
vt 0.0000 1.0000 0.0000
vt 0.2500 0.5000 0.0000
vt 0.2500 0.0000 0.0000
vt 0.5000 0.5000 0.0000
vt 0.5000 0.0000 0.0000
vt 0.7500 0.5000 0.0000
vt 0.7500 0.0000 0.0000
vt 0.2500 1.0000 0.0000
vt 0.5000 1.0000 0.0000
vt 0.7500 1.0000 0.0000
# 39 texture coords

g Box001
s 2
f 1/1/1 2/2/1 3/3/1 4/4/1 
f 2/2/1 5/5/1 6/6/1 3/3/1 
f 5/5/1 7/7/1 8/8/1 6/6/1 
f 7/7/1 9/9/1 10/10/1 8/8/1 
f 9/9/1 11/11/1 12/12/1 10/10/1 
f 4/4/1 3/3/1 13/13/1 14/14/1 
f 3/3/1 6/6/1 15/15/1 13/13/1 
f 6/6/1 8/8/1 16/16/1 15/15/1 
f 8/8/1 10/10/1 17/17/1 16/16/1 
f 10/10/1 12/12/1 18/18/1 17/17/1 
f 14/14/1 13/13/1 19/19/1 20/20/1 
f 13/13/1 15/15/1 21/21/1 19/19/1 
f 15/15/1 16/16/1 22/22/1 21/21/1 
f 16/16/1 17/17/1 23/23/1 22/22/1 
f 17/17/1 18/18/1 24/24/1 23/23/1 
f 20/20/1 19/19/1 25/25/1 26/26/1 
f 27/19/1 28/21/1 29/27/1 30/25/1 
f 21/21/1 22/22/1 31/28/1 32/27/1 
f 22/22/1 23/23/1 33/29/1 31/28/1 
f 23/23/1 24/24/1 34/30/1 33/29/1 
s 8
f 1/11/2 35/18/2 36/17/2 2/9/2 
f 2/9/2 36/17/2 37/16/2 5/7/2 
f 5/7/2 37/16/2 38/15/2 7/5/2 
f 8/5/2 39/15/2 40/13/2 10/2/2 
f 9/2/2 41/13/2 42/14/2 11/1/2 
f 35/18/2 43/30/2 44/29/2 36/17/2 
f 36/17/2 44/29/2 45/28/2 37/16/2 
f 37/16/2 45/28/2 46/27/2 38/15/2 
f 38/15/2 46/27/2 47/25/2 41/13/2 
f 41/13/2 47/25/2 48/26/2 42/14/2 
s 16
f 11/11/3 42/18/4 49/31/4 12/32/3 
f 12/32/3 49/31/4 50/33/4 18/34/3 
f 18/34/3 50/33/4 51/35/4 24/36/3 
f 24/36/3 51/35/4 52/14/4 34/1/3 
f 42/18/4 48/30/4 53/37/4 49/31/4 
f 49/31/4 53/37/4 54/38/4 50/33/4 
f 50/33/4 54/38/4 55/39/4 51/35/4 
f 51/35/4 55/39/4 56/26/4 52/14/4 
s 32
f 34/11/5 52/18/5 57/17/5 33/9/5 
f 58/9/5 59/17/5 60/16/5 61/7/5 
f 31/7/5 62/16/5 63/15/5 32/5/5 
f 25/2/5 64/13/5 65/14/5 26/1/5 
f 52/18/5 56/30/5 66/29/5 57/17/5 
f 57/17/5 66/29/5 67/28/5 62/16/5 
f 62/16/5 67/28/5 29/27/5 63/15/5 
f 64/13/5 30/25/5 68/26/5 65/14/5 
s 64
f 26/11/6 65/18/6 69/31/6 20/32/6 
f 20/32/6 69/31/6 70/33/6 14/34/6 
f 14/34/6 70/33/6 71/35/6 4/36/6 
f 4/36/6 71/35/6 35/14/6 1/1/6 
f 65/18/6 68/30/6 72/37/6 69/31/6 
f 69/31/6 72/37/6 73/38/6 70/33/6 
f 70/33/6 73/38/6 74/39/6 71/35/6 
f 71/35/6 74/39/6 43/26/6 35/14/6 
s off
f 31/7/1 33/9/1 58/9/1 61/7/1 
f 33/9/3 57/17/3 59/17/3 58/9/3 
f 57/17/7 62/16/7 60/16/7 59/17/7 
f 62/16/6 31/7/6 61/7/6 60/16/6 
f 9/2/7 7/5/7 8/5/7 10/2/7 
f 7/5/4 38/15/4 39/15/4 8/5/4 
f 38/15/1 41/13/1 40/13/1 39/15/1 
f 41/13/6 9/2/6 10/2/6 40/13/6 
f 19/19/5 21/21/5 28/21/5 27/19/5 
f 21/21/6 32/27/6 29/27/6 28/21/6 
f 25/25/4 19/19/4 27/19/4 30/25/4 
# 65 polygons

#
# object Box002
#

v  -1.1314 0.0000 -0.5984
v  -1.1314 0.0000 -0.7234
v  -1.0451 0.0000 -0.7234
v  -1.0451 0.0000 -0.5984
v  -0.8214 0.9000 -0.5484
v  -0.8214 0.9000 -0.7734
v  -0.4614 0.9000 -0.7734
v  -0.4614 0.9000 -0.5484
v  -0.1014 0.9000 -0.7734
v  -0.1014 0.9000 -0.5484
v  0.2586 0.9000 -0.7734
v  0.2586 0.9000 -0.5484
v  0.4832 0.0000 -0.5984
v  0.4832 0.0000 -0.7234
v  0.5686 0.0000 -0.7234
v  0.5686 0.0000 -0.5984
v  -1.1814 0.9000 -0.7734
v  -1.1814 0.9000 -0.9984
v  -0.8214 0.9000 -0.9984
v  -0.4614 0.9000 -0.9984
v  -0.1014 0.9000 -0.9984
v  0.2586 0.9000 -0.9984
v  0.6186 0.9000 -0.9984
v  0.6186 0.9000 -0.7734
v  -1.1814 0.9000 -1.2234
v  -0.8214 0.9000 -1.2234
v  -0.4614 0.9000 -1.2234
v  -0.1014 0.9000 -1.2234
v  0.2586 0.9000 -1.2234
v  0.6186 0.9000 -1.2234
v  -1.1314 0.0000 -1.2734
v  -1.1314 0.0000 -1.3984
v  -1.0451 0.0000 -1.3984
v  -1.0451 0.0000 -1.2734
v  -0.8214 0.9000 -1.4484
v  -0.4614 0.9000 -1.4484
v  -0.1014 0.9000 -1.4484
v  0.2586 0.9000 -1.4484
v  0.4832 0.0000 -1.2734
v  0.4832 0.0000 -1.3984
v  0.5686 0.0000 -1.3984
v  0.5686 0.0000 -1.2734
v  -1.1814 1.0000 -0.5484
v  -0.8214 1.0000 -0.5484
v  -0.8214 1.0000 -0.7734
v  -1.1814 1.0000 -0.7734
v  -0.4614 1.0000 -0.5484
v  -0.4614 1.0000 -0.7734
v  -0.1014 1.0000 -0.5484
v  -0.1014 1.0000 -0.7734
v  0.2586 1.0000 -0.5484
v  0.2586 1.0000 -0.7734
v  0.6186 1.0000 -0.5484
v  0.6186 1.0000 -0.7734
v  -0.8214 1.0000 -0.9984
v  -1.1814 1.0000 -0.9984
v  -0.4614 1.0000 -0.9984
v  -0.1014 1.0000 -0.9984
v  0.2586 1.0000 -0.9984
v  0.6186 1.0000 -0.9984
v  -0.8214 1.0000 -1.2234
v  -1.1814 1.0000 -1.2234
v  -0.4614 1.0000 -1.2234
v  -0.1014 1.0000 -1.2234
v  0.2586 1.0000 -1.2234
v  0.6186 1.0000 -1.2234
v  -0.8214 1.0000 -1.4484
v  -1.1814 1.0000 -1.4484
v  -0.4614 1.0000 -1.4484
v  -0.1014 1.0000 -1.4484
v  0.2586 1.0000 -1.4484
v  0.6186 1.0000 -1.4484
v  -1.1814 0.9000 -0.5484
v  0.6186 0.9000 -0.5484
v  0.6186 0.9000 -1.4484
v  -1.1814 0.9000 -1.4484
v  -1.1314 0.9000 -0.7234
v  -1.1314 0.9000 -0.5984
v  -1.0451 0.9000 -0.7234
v  -1.0451 0.9000 -0.5984
v  0.4832 0.9000 -0.7234
v  0.4832 0.9000 -0.5984
v  0.5686 0.9000 -0.7234
v  0.5686 0.9000 -0.5984
v  -1.1314 0.9000 -1.2734
v  -1.0451 0.9000 -1.2734
v  -1.1314 0.9000 -1.3984
v  -1.0451 0.9000 -1.3984
v  0.4832 0.9000 -1.2734
v  0.5686 0.9000 -1.2734
v  0.4832 0.9000 -1.3984
v  0.5686 0.9000 -1.3984
# 92 vertices

vn 0.0000 -1.0000 -0.0000
vn 0.0000 1.0000 -0.0000
vn 0.0000 0.0000 1.0000
vn 1.0000 0.0000 -0.0000
vn 0.0000 0.0000 -1.0000
vn -1.0000 0.0000 -0.0000
# 6 vertex normals

vt 1.0000 0.0000 0.0000
vt 1.0000 0.2500 0.0000
vt 0.8000 0.2500 0.0000
vt 0.8000 0.0000 0.0000
vt 0.6000 0.2500 0.0000
vt 0.6000 0.0000 0.0000
vt 0.4000 0.2500 0.0000
vt 0.4000 0.0000 0.0000
vt 0.2000 0.2500 0.0000
vt 0.2000 0.0000 0.0000
vt 0.0000 0.2500 0.0000
vt 0.0000 0.0000 0.0000
vt 1.0000 0.5000 0.0000
vt 0.8000 0.5000 0.0000
vt 0.6000 0.5000 0.0000
vt 0.4000 0.5000 0.0000
vt 0.2000 0.5000 0.0000
vt 0.0000 0.5000 0.0000
vt 1.0000 0.7500 0.0000
vt 0.8000 0.7500 0.0000
vt 0.6000 0.7500 0.0000
vt 0.4000 0.7500 0.0000
vt 0.2000 0.7500 0.0000
vt 0.0000 0.7500 0.0000
vt 1.0000 1.0000 0.0000
vt 0.8000 1.0000 0.0000
vt 0.6000 1.0000 0.0000
vt 0.4000 1.0000 0.0000
vt 0.2000 1.0000 0.0000
vt 0.0000 1.0000 0.0000
vt 0.2500 0.0000 0.0000
vt 0.2500 1.0000 0.0000
vt 0.5000 0.0000 0.0000
vt 0.5000 1.0000 0.0000
vt 0.7500 0.0000 0.0000
vt 0.7500 1.0000 0.0000
# 36 texture coords

g Box002
s 2
f 75/40/8 76/41/8 77/42/8 78/43/8 
f 79/43/8 80/42/8 81/44/8 82/45/8 
f 82/45/8 81/44/8 83/46/8 84/47/8 
f 84/47/8 83/46/8 85/48/8 86/49/8 
f 87/49/8 88/48/8 89/50/8 90/51/8 
f 91/41/8 92/52/8 93/53/8 80/42/8 
f 80/42/8 93/53/8 94/54/8 81/44/8 
f 81/44/8 94/54/8 95/55/8 83/46/8 
f 83/46/8 95/55/8 96/56/8 85/48/8 
f 85/48/8 96/56/8 97/57/8 98/50/8 
f 92/52/8 99/58/8 100/59/8 93/53/8 
f 93/53/8 100/59/8 101/60/8 94/54/8 
f 94/54/8 101/60/8 102/61/8 95/55/8 
f 95/55/8 102/61/8 103/62/8 96/56/8 
f 96/56/8 103/62/8 104/63/8 97/57/8 
f 105/58/8 106/64/8 107/65/8 108/59/8 
f 100/59/8 109/65/8 110/66/8 101/60/8 
f 101/60/8 110/66/8 111/67/8 102/61/8 
f 102/61/8 111/67/8 112/68/8 103/62/8 
f 113/62/8 114/68/8 115/69/8 116/63/8 
s 4
f 117/51/9 118/49/9 119/48/9 120/50/9 
f 118/49/9 121/47/9 122/46/9 119/48/9 
f 121/47/9 123/45/9 124/44/9 122/46/9 
f 123/45/9 125/43/9 126/42/9 124/44/9 
f 125/43/9 127/40/9 128/41/9 126/42/9 
f 120/50/9 119/48/9 129/56/9 130/57/9 
f 119/48/9 122/46/9 131/55/9 129/56/9 
f 122/46/9 124/44/9 132/54/9 131/55/9 
f 124/44/9 126/42/9 133/53/9 132/54/9 
f 126/42/9 128/41/9 134/52/9 133/53/9 
f 130/57/9 129/56/9 135/62/9 136/63/9 
f 129/56/9 131/55/9 137/61/9 135/62/9 
f 131/55/9 132/54/9 138/60/9 137/61/9 
f 132/54/9 133/53/9 139/59/9 138/60/9 
f 133/53/9 134/52/9 140/58/9 139/59/9 
f 136/63/9 135/62/9 141/68/9 142/69/9 
f 135/62/9 137/61/9 143/67/9 141/68/9 
f 137/61/9 138/60/9 144/66/9 143/67/9 
f 138/60/9 139/59/9 145/65/9 144/66/9 
f 139/59/9 140/58/9 146/64/9 145/65/9 
s 8
f 147/51/10 79/49/10 118/68/10 117/69/10 
f 79/49/10 82/47/10 121/67/10 118/68/10 
f 82/47/10 84/45/10 123/66/10 121/67/10 
f 84/45/10 86/43/10 125/65/10 123/66/10 
f 86/43/10 148/40/10 127/64/10 125/65/10 
s 16
f 148/51/11 98/70/11 128/71/11 127/69/11 
f 98/70/11 97/72/11 134/73/11 128/71/11 
f 97/72/11 104/74/11 140/75/11 134/73/11 
f 104/74/11 149/40/11 146/64/11 140/75/11 
s 32
f 149/51/12 112/49/12 145/68/12 146/69/12 
f 112/49/12 111/47/12 144/67/12 145/68/12 
f 111/47/12 110/45/12 143/66/12 144/67/12 
f 110/45/12 109/43/12 141/65/12 143/66/12 
f 109/43/12 150/40/12 142/64/12 141/65/12 
s 64
f 150/51/13 99/70/13 136/71/13 142/69/13 
f 99/70/13 92/72/13 130/73/13 136/71/13 
f 92/72/13 91/74/13 120/75/13 130/73/13 
f 91/74/13 147/40/13 117/64/13 120/75/13 
s off
f 147/40/8 91/41/8 151/41/8 152/40/8 
f 91/41/8 80/42/8 153/42/8 151/41/8 
f 80/42/8 79/43/8 154/43/8 153/42/8 
f 79/43/8 147/40/8 152/40/8 154/43/8 
f 86/49/8 85/48/8 155/48/8 156/49/8 
f 85/48/8 98/50/8 157/50/8 155/48/8 
f 98/50/8 148/51/8 158/51/8 157/50/8 
f 148/51/8 86/49/8 156/49/8 158/51/8 
f 100/59/8 99/58/8 159/58/8 160/59/8 
f 99/58/8 150/64/8 161/64/8 159/58/8 
f 150/64/8 109/65/8 162/65/8 161/64/8 
f 109/65/8 100/59/8 160/59/8 162/65/8 
f 104/63/8 103/62/8 163/62/8 164/63/8 
f 103/62/8 112/68/8 165/68/8 163/62/8 
f 112/68/8 149/69/8 166/69/8 165/68/8 
f 149/69/8 104/63/8 164/63/8 166/69/8 
f 152/40/13 151/41/13 76/41/13 75/40/13 
f 151/41/12 153/42/12 77/42/12 76/41/12 
f 153/42/11 154/43/11 78/43/11 77/42/11 
f 154/43/10 152/40/10 75/40/10 78/43/10 
f 156/49/13 155/48/13 88/48/13 87/49/13 
f 155/48/12 157/50/12 89/50/12 88/48/12 
f 157/50/11 158/51/11 90/51/11 89/50/11 
f 158/51/10 156/49/10 87/49/10 90/51/10 
f 160/59/10 159/58/10 105/58/10 108/59/10 
f 159/58/13 161/64/13 106/64/13 105/58/13 
f 161/64/12 162/65/12 107/65/12 106/64/12 
f 162/65/11 160/59/11 108/59/11 107/65/11 
f 164/63/10 163/62/10 113/62/10 116/63/10 
f 163/62/13 165/68/13 114/68/13 113/62/13 
f 165/68/12 166/69/12 115/69/12 114/68/12 
f 166/69/11 164/63/11 116/63/11 115/69/11 
# 90 polygons

#
# object Box003
#

v  -1.0766 0.0000 1.4434
v  -1.0766 0.0000 1.2434
v  -0.6566 0.0000 1.2434
v  -0.6566 0.0000 1.4434
v  -0.2366 0.0000 1.2434
v  -0.2366 0.0000 1.4434
v  0.1834 0.0000 1.2434
v  0.1834 0.0000 1.4434
v  0.6034 0.0000 1.2434
v  0.6034 0.0000 1.4434
v  1.0234 0.0000 1.2434
v  1.0234 0.0000 1.4434
v  -1.0766 0.0000 1.0434
v  -0.6566 0.0000 1.0434
v  -0.2366 0.0000 1.0434
v  0.1834 0.0000 1.0434
v  0.6034 0.0000 1.0434
v  1.0234 0.0000 1.0434
v  -1.0766 0.0000 0.8434
v  -0.6566 0.0000 0.8434
v  -0.2366 0.0000 0.8434
v  0.1834 0.0000 0.8434
v  0.6034 0.0000 0.8434
v  1.0234 0.0000 0.8434
v  -1.0766 0.0000 0.6434
v  -0.6566 0.0000 0.6434
v  -0.2366 0.0000 0.6434
v  0.1834 0.0000 0.6434
v  0.6034 0.0000 0.6434
v  1.0234 0.0000 0.6434
v  -1.0766 0.9500 1.4434
v  -0.6566 0.9500 1.4434
v  -0.6566 0.9500 1.2434
v  -1.0766 0.9500 1.2434
v  -0.2366 0.9500 1.4434
v  -0.2366 0.9500 1.2434
v  0.1834 0.9500 1.4434
v  0.1834 0.9500 1.2434
v  0.6034 0.9500 1.4434
v  0.6034 0.9500 1.2434
v  1.0234 0.9500 1.4434
v  1.0234 0.9500 1.2434
v  -1.0766 0.8000 1.2434
v  -0.8666 0.8000 1.2434
v  -0.8666 0.8000 1.0434
v  -1.0766 0.8000 1.0434
v  -0.8666 0.5000 1.2434
v  -0.2366 0.5000 1.2434
v  -0.2366 0.5000 1.0434
v  -0.8666 0.5000 1.0434
v  0.1834 0.5000 1.2434
v  0.1834 0.5000 1.0434
v  0.8254 0.5000 1.2434
v  0.8254 0.5000 1.0434
v  0.8254 0.8000 1.2434
v  1.0234 0.8000 1.2434
v  1.0234 0.8000 1.0434
v  0.8254 0.8000 1.0434
v  -0.8666 0.8000 0.8434
v  -1.0766 0.8000 0.8434
v  -0.2366 0.5000 0.8434
v  -0.8666 0.5000 0.8434
v  0.1834 0.5000 0.8434
v  0.8254 0.5000 0.8434
v  1.0234 0.8000 0.8434
v  0.8254 0.8000 0.8434
v  -0.8666 0.8000 0.6434
v  -1.0766 0.8000 0.6434
v  -0.2366 0.5000 0.6434
v  -0.8666 0.5000 0.6434
v  0.1834 0.5000 0.6434
v  0.8254 0.5000 0.6434
v  1.0234 0.8000 0.6434
v  0.8254 0.8000 0.6434
v  -0.6566 0.5000 1.4434
v  -1.0766 0.5000 1.4434
v  -0.2366 0.5000 1.4434
v  0.1834 0.5000 1.4434
v  0.6034 0.5000 1.4434
v  1.0234 0.5000 1.4434
v  1.0234 0.5000 1.2434
v  1.0234 0.5000 1.0434
v  1.0234 0.5000 0.8434
v  1.0234 0.5000 0.6434
v  -1.0766 0.5000 0.6434
v  -1.0766 0.5000 0.8434
v  -1.0766 0.5000 1.0434
v  -1.0766 0.5000 1.2434
v  -0.6566 0.8000 1.4434
v  -1.0766 0.8000 1.4434
v  -0.2366 0.8000 1.4434
v  0.1834 0.8000 1.4434
v  0.6034 0.8000 1.4434
v  1.0234 0.8000 1.4434
v  0.1834 0.8000 1.2434
v  -0.2366 0.8000 1.2434
# 96 vertices

vn 0.0000 -1.0000 -0.0000
vn 0.0000 1.0000 -0.0000
vn 0.0000 0.0000 1.0000
vn 1.0000 0.0000 -0.0000
vn 0.0000 0.0000 -1.0000
vn -1.0000 0.0000 -0.0000
vn -0.0000 0.0000 -1.0000
# 7 vertex normals

vt 1.0000 0.0000 0.0000
vt 1.0000 0.2500 0.0000
vt 0.8000 0.2500 0.0000
vt 0.8000 0.0000 0.0000
vt 0.6000 0.2500 0.0000
vt 0.6000 0.0000 0.0000
vt 0.4000 0.2500 0.0000
vt 0.4000 0.0000 0.0000
vt 0.2000 0.2500 0.0000
vt 0.2000 0.0000 0.0000
vt 0.0000 0.2500 0.0000
vt 0.0000 0.0000 0.0000
vt 1.0000 0.5000 0.0000
vt 0.8000 0.5000 0.0000
vt 0.6000 0.5000 0.0000
vt 0.4000 0.5000 0.0000
vt 0.2000 0.5000 0.0000
vt 0.0000 0.5000 0.0000
vt 1.0000 0.7500 0.0000
vt 0.8000 0.7500 0.0000
vt 0.6000 0.7500 0.0000
vt 0.4000 0.7500 0.0000
vt 0.2000 0.7500 0.0000
vt 0.0000 0.7500 0.0000
vt 1.0000 1.0000 0.0000
vt 0.8000 1.0000 0.0000
vt 0.6000 1.0000 0.0000
vt 0.4000 1.0000 0.0000
vt 0.2000 1.0000 0.0000
vt 0.0000 1.0000 0.0000
vt 0.2500 0.0000 0.0000
vt 0.2500 1.0000 0.0000
vt 0.5000 0.0000 0.0000
vt 0.5000 1.0000 0.0000
vt 0.7500 0.0000 0.0000
vt 0.7500 1.0000 0.0000
# 36 texture coords

g Box003
s 2
f 167/76/14 168/77/14 169/78/14 170/79/14 
f 170/79/14 169/78/14 171/80/14 172/81/14 
f 172/81/14 171/80/14 173/82/14 174/83/14 
f 174/83/14 173/82/14 175/84/14 176/85/14 
f 176/85/14 175/84/14 177/86/14 178/87/14 
f 168/77/14 179/88/14 180/89/14 169/78/14 
f 169/78/14 180/89/14 181/90/14 171/80/14 
f 171/80/14 181/90/14 182/91/14 173/82/14 
f 173/82/14 182/91/14 183/92/14 175/84/14 
f 175/84/14 183/92/14 184/93/14 177/86/14 
f 179/88/14 185/94/14 186/95/14 180/89/14 
f 180/89/14 186/95/14 187/96/14 181/90/14 
f 181/90/14 187/96/14 188/97/14 182/91/14 
f 182/91/14 188/97/14 189/98/14 183/92/14 
f 183/92/14 189/98/14 190/99/14 184/93/14 
f 185/94/14 191/100/14 192/101/14 186/95/14 
f 186/95/14 192/101/14 193/102/14 187/96/14 
f 187/96/14 193/102/14 194/103/14 188/97/14 
f 188/97/14 194/103/14 195/104/14 189/98/14 
f 189/98/14 195/104/14 196/105/14 190/99/14 
s 4
f 197/87/15 198/85/15 199/84/15 200/86/15 
f 198/85/15 201/83/15 202/82/15 199/84/15 
f 201/83/15 203/81/15 204/80/15 202/82/15 
f 203/81/15 205/79/15 206/78/15 204/80/15 
f 205/79/15 207/76/15 208/77/15 206/78/15 
f 209/86/15 210/84/15 211/92/15 212/93/15 
f 213/84/15 214/82/15 215/91/15 216/92/15 
f 214/82/15 217/80/15 218/90/15 215/91/15 
f 217/80/15 219/78/15 220/89/15 218/90/15 
f 221/78/15 222/77/15 223/88/15 224/89/15 
f 212/93/15 211/92/15 225/98/15 226/99/15 
f 216/92/15 215/91/15 227/97/15 228/98/15 
f 215/91/15 218/90/15 229/96/15 227/97/15 
f 218/90/15 220/89/15 230/95/15 229/96/15 
f 224/89/15 223/88/15 231/94/15 232/95/15 
f 226/99/15 225/98/15 233/104/15 234/105/15 
f 228/98/15 227/97/15 235/103/15 236/104/15 
f 227/97/15 229/96/15 237/102/15 235/103/15 
f 229/96/15 230/95/15 238/101/15 237/102/15 
f 232/95/15 231/94/15 239/100/15 240/101/15 
s 8
f 167/87/16 170/85/16 241/104/16 242/105/16 
f 170/85/16 172/83/16 243/103/16 241/104/16 
f 172/83/16 174/81/16 244/102/16 243/103/16 
f 174/81/16 176/79/16 245/101/16 244/102/16 
f 176/79/16 178/76/16 246/100/16 245/101/16 
s 16
f 178/87/17 177/106/17 247/107/17 246/105/17 
f 177/106/17 184/108/17 248/109/17 247/107/17 
f 184/108/17 190/110/17 249/111/17 248/109/17 
f 190/110/17 196/76/17 250/100/17 249/111/17 
s 32
f 196/87/18 195/85/18 238/104/18 250/105/18 
f 195/85/18 194/83/18 237/103/18 238/104/18 
f 194/83/18 193/81/18 235/102/18 237/103/18 
f 193/81/18 192/79/18 236/101/18 235/102/18 
f 192/79/18 191/76/18 251/100/18 236/101/18 
s 64
f 191/87/19 185/106/19 252/107/19 251/105/19 
f 185/106/19 179/108/19 253/109/19 252/107/19 
f 179/108/19 168/110/19 254/111/19 253/109/19 
f 168/110/19 167/76/19 242/100/19 254/111/19 
s off
f 242/87/16 241/85/16 255/85/16 256/87/16 
f 241/85/16 243/83/16 257/83/16 255/85/16 
f 243/83/16 244/81/16 258/81/16 257/83/16 
f 244/81/16 245/79/16 259/79/16 258/81/16 
f 245/79/16 246/76/16 260/76/16 259/79/16 
f 246/76/17 247/77/17 222/77/17 260/76/17 
f 247/77/17 248/88/17 223/88/17 222/77/17 
f 248/88/17 249/94/17 231/94/17 223/88/17 
f 249/94/17 250/100/17 239/100/17 231/94/17 
f 250/100/18 238/101/18 240/101/18 239/100/18 
f 238/101/19 230/95/19 232/95/19 240/101/19 
f 230/95/19 220/89/19 224/89/19 232/95/19 
f 220/89/19 219/78/19 221/78/19 224/89/19 
f 219/78/20 217/80/20 261/80/20 221/78/20 
f 217/80/18 214/82/18 262/82/18 261/80/18 
f 214/82/18 213/84/18 210/84/18 262/82/18 
f 213/84/17 216/92/17 211/92/17 210/84/17 
f 216/92/17 228/98/17 225/98/17 211/92/17 
f 228/98/17 236/104/17 233/104/17 225/98/17 
f 236/104/18 251/105/18 234/105/18 233/104/18 
f 251/105/19 252/99/19 226/99/19 234/105/19 
f 252/99/19 253/93/19 212/93/19 226/99/19 
f 253/93/19 254/86/19 209/86/19 212/93/19 
f 254/86/19 242/87/19 256/87/19 209/86/19 
f 210/84/20 209/86/20 200/86/20 199/84/20 
f 209/86/19 256/87/19 197/87/19 200/86/19 
f 256/87/16 255/85/16 198/85/16 197/87/16 
f 255/85/16 257/83/16 201/83/16 198/85/16 
f 257/83/16 258/81/16 203/81/16 201/83/16 
f 258/81/16 259/79/16 205/79/16 203/81/16 
f 259/79/16 260/76/16 207/76/16 205/79/16 
f 260/76/17 222/77/17 208/77/17 207/76/17 
f 222/77/18 221/78/18 206/78/18 208/77/18 
f 221/78/20 261/80/20 204/80/20 206/78/20 
f 261/80/18 262/82/18 202/82/18 204/80/18 
f 262/82/18 210/84/18 199/84/18 202/82/18 
# 94 polygons

