# 3ds Max Wavefront OBJ Exporter v0.97b - (c)2007 guruware
# File Created: 19.01.2017 12:33:06

#
# object Asset_Room
#

v  -25.0000 0.0000 25.0000
v  -25.0000 0.0000 -25.0000
v  25.0000 0.0000 -25.0000
v  25.0000 0.0000 25.0000
v  -25.0000 1.0000 25.0000
v  25.0000 1.0000 25.0000
v  25.0000 1.0000 -25.0000
v  -25.0000 1.0000 -25.0000
v  -25.0000 0.0000 27.0000
v  25.0000 0.0000 27.0000
v  25.0000 1.0000 27.0000
v  -25.0000 1.0000 27.0000
v  27.0000 0.0000 25.0000
v  27.0000 0.0000 -25.0000
v  27.0000 1.0000 -25.0000
v  27.0000 1.0000 25.0000
v  25.0000 0.0000 -27.0000
v  -25.0000 0.0000 -27.0000
v  -25.0000 1.0000 -27.0000
v  25.0000 1.0000 -27.0000
v  -27.0000 0.0000 -25.0000
v  -27.0000 0.0000 25.0000
v  -27.0000 1.0000 25.0000
v  -27.0000 1.0000 -25.0000
v  27.0000 1.0000 27.0000
v  27.0000 0.0000 27.0000
v  -27.0000 0.0000 27.0000
v  -27.0000 1.0000 27.0000
v  27.0000 1.0000 -27.0000
v  27.0000 0.0000 -27.0000
v  -27.0000 1.0000 -27.0000
v  -27.0000 0.0000 -27.0000
# 32 vertices

vn 0.0000 -1.0000 -0.0000
vn 0.0000 1.0000 -0.0000
vn 0.0000 0.0000 1.0000
vn 1.0000 0.0000 -0.0000
vn 0.0000 0.0000 -1.0000
vn -1.0000 0.0000 -0.0000
# 6 vertex normals

vt 1.0000 0.0000 0.0000
vt 1.0000 1.0000 0.0000
vt 0.0000 1.0000 0.0000
vt 0.0000 0.0000 0.0000
# 4 texture coords

g Asset_Room
s 2
f 1/1/1 2/2/1 3/3/1 4/4/1 
s 4
f 5/4/2 6/1/2 7/2/2 8/3/2 
s 8
f 9/4/3 10/1/3 11/2/3 12/3/3 
s 16
f 13/4/4 14/1/4 15/2/4 16/3/4 
s 32
f 17/4/5 18/1/5 19/2/5 20/3/5 
s 64
f 21/4/6 22/1/6 23/2/6 24/3/6 
s off
f 1/4/1 4/1/1 10/1/1 9/4/1 
f 13/1/4 16/2/4 25/2/4 26/1/4 
f 6/2/2 5/3/2 12/3/2 11/2/2 
f 23/3/6 22/4/6 27/4/6 28/3/6 
f 4/4/1 3/1/1 14/1/1 13/4/1 
f 17/1/5 20/2/5 29/2/5 30/1/5 
f 7/2/2 6/3/2 16/3/2 15/2/2 
f 6/2/2 11/2/2 25/2/2 16/2/2 
f 11/2/3 10/1/3 26/1/3 25/2/3 
f 10/1/1 4/1/1 13/1/1 26/1/1 
f 3/4/1 2/1/1 18/1/1 17/4/1 
f 21/1/6 24/2/6 31/2/6 32/1/6 
f 8/2/2 7/3/2 20/3/2 19/2/2 
f 7/2/2 15/2/2 29/2/2 20/2/2 
f 15/2/4 14/1/4 30/1/4 29/2/4 
f 14/1/1 3/1/1 17/1/1 30/1/1 
f 2/4/1 1/1/1 22/1/1 21/4/1 
f 1/4/1 9/4/1 27/4/1 22/4/1 
f 9/4/3 12/3/3 28/3/3 27/4/3 
f 12/3/2 5/3/2 23/3/2 28/3/2 
f 5/2/2 8/3/2 24/3/2 23/2/2 
f 8/2/2 19/2/2 31/2/2 24/2/2 
f 19/2/5 18/1/5 32/1/5 31/2/5 
f 18/1/1 2/1/1 21/1/1 32/1/1 
# 30 polygons

